<svg id="Camada_1" data-name="Camada 1" xmlns="http://www.w3.org/2000/svg" xmlns:xlink="http://www.w3.org/1999/xlink" viewBox="0 0 417.76 437.3"><defs><style>.cls-1{fill:url(#Gradiente_sem_nome_63);}.cls-2{fill:#adddf5;}.cls-3{fill:url(#Gradiente_sem_nome_3);}.cls-4{fill:url(#Gradiente_sem_nome_3-5);}.cls-5{fill:#acddf5;}.cls-6{fill:none;stroke:#2f95d2;stroke-miterlimit:10;stroke-width:3px;stroke-dasharray:12;}.cls-7{fill:#2c95d3;}</style><radialGradient id="Gradiente_sem_nome_63" cx="328.34" cy="521.06" r="172.61" gradientTransform="translate(-110.58 390.48) scale(1 0.06)" gradientUnits="userSpaceOnUse"><stop offset="0" stop-color="#c9c9c9"/><stop offset="1" stop-color="#eff6fd"/></radialGradient><radialGradient id="Gradiente_sem_nome_3" cx="20.43" cy="1763.91" r="292.98" gradientTransform="matrix(1, 0, 0, -1, 300.92, 1960.39)" gradientUnits="userSpaceOnUse"><stop offset="0" stop-color="#fff"/><stop offset="0.72" stop-color="#e2f2f6"/><stop offset="1" stop-color="#c5e5ed"/></radialGradient><radialGradient id="Gradiente_sem_nome_3-5" cx="20.43" cy="1763.91" r="292.98" gradientTransform="matrix(1, 0, 0, -1, 300.92, 1960.37)" xlink:href="#Gradiente_sem_nome_3"/></defs><ellipse class="cls-1" cx="217.76" cy="422.17" rx="176.48" ry="15.13"/><path class="cls-2" d="M219.89,284.59c.47.18,1.22-.1,1.6-.1a13,13,0,0,0,1.6-.28,5.27,5.27,0,0,1,.37,1.13c0,.28,2-.1,2-.38a3.59,3.59,0,0,1,.47-1l2.34-.47,3.48.1c.29,0,.47-.57-.09-1.6s-2.17-1.23-2.54-2-2.16-.26-2.63,0-3.1-.64-3.86-.64,0,.84,0,.84l-.28,2.73h-3.1l-.09.28s-.85.28-.85.84S219.42,284.4,219.89,284.59Z" transform="translate(-110.58 -98.89)"/><path class="cls-2" d="M220.07,278.29c-.08-.28-1.5-.74-2.25-.74s-3.48-2.64-3.66-3.21-6.3-2.06-6.3-2.06-6.67-.38-6.67-.56c0,0,0,0,0,0-.21,0-3.19,2.54-3.19,2.54v.28s.28,1.32.38,1.6,2.16-1.51,2.35-2.26,1.69-.94,2.06-1.13.57.76.94.76a15.21,15.21,0,0,1,2.07.56l3.39,1.13,1.31,1.22s.57,3,.57,3.38,2.53.19,2.53.19l5-.46S220.18,278.57,220.07,278.29Z" transform="translate(-110.58 -98.89)"/><path class="cls-2" d="M474.52,162.53c-.32.25-2,1.45-2.13,1.13s.25-1.63.19-1.88-2.64.44-2.64.44-3.31,1.07-3.44,1.38-1.63.63-1.88.69a2.84,2.84,0,0,1-.56.06s-1.31.82-1.07,1.25-1.82.69-1.82.69a8.58,8.58,0,0,1-1.37-1c-.06-.18,1.42-1.17,1.57-1.26-.2.13-1.57-1.63-1.76-1.69s-1.16,0-2.21,0c-.85,0-1.7,0-2,0a5.6,5.6,0,0,1,1.61,1.49c0,.19.19,2,.19,2s1,.63,1.19.56-.19,1.07-.19,1.07l-1.69-.19s-.69-1-1.26-.44-2.44,2-2.56,1.82-1.19.19-1.13.56.88,1.19.88,1.19-1.19,1-1.07.63-3.25-1.25-3.51-1.19-1.69.5-1.69.5l.62,1.07s1.88.12,2.13.5-.43,1.12-.63,1.12-4.56-2.06-4.56-2.06-1.45-1.51-1-1.94.82-1.13,0-1.13a2.29,2.29,0,0,1-1.75-.88c-.06-.25,4.94.51,4.94.51l2.89.31s-.37.38.76,0,3-1.32,3.25-1.38.56-1.26.56-1.26l-.37-1.06-10.77-2.57a30.83,30.83,0,0,1-3.64-1.25,19.67,19.67,0,0,0-3.2-.51l-1.5.2,1.26-1.57s-4.9-1.45-5-1.26a18.27,18.27,0,0,1-2.13,1.14l-3.76-.63-4.83,1.12-4.89,1.2-7.07,3,2.63.25L409,165.23l-3.13,2.33-1.75,2.87-.25,1.57-1.69,1.81a10.9,10.9,0,0,1-1.44-.87c-.25-.25-4.39,1.19-4.39,1.19l-2.5,2.38s-.63,1.19-.75,1.51a30.07,30.07,0,0,0,.19,3.63s1.5,0,1.06.44-.38,2.45-.38,2.45l1.76,1.18a16.33,16.33,0,0,0,2.64.69,10.12,10.12,0,0,0,1.62-.94c.18-.12,1.57-1.5,2-1.44.19,0,.52-.2.83-.42s.79-.58.87-.33a14.08,14.08,0,0,0,.62,2.38,9.63,9.63,0,0,1,1.5,1.94c.37.88.89,1.76.76,1.94s-1,1.07-1,1.07a8.61,8.61,0,0,0-2.13.5c-.25.25-.56.38-.75.25s.63-1,.82-1.25-.44-1.26-.69-1.19-.5-.57-.26-.75.19-1.38.19-1.38-.37-.19-.56-.13l-2.38.94a11.09,11.09,0,0,0-1.25,1.5,4.58,4.58,0,0,0-.25,2.51,24.73,24.73,0,0,0,1.06,2.45s.81.56.5.81a8.38,8.38,0,0,0-.94,1.19l-1.5.06s-2.69.32-2.95.44-2.87.94-2.75,1.19a17.17,17.17,0,0,1-.57,2.95,27.91,27.91,0,0,1-3.07,1.94c-.31,0-2.25.5-2.25.5a17.8,17.8,0,0,1-.94,2.19,24.72,24.72,0,0,0-2.95,1.38s-2.19-.63-2.25-.88-.82-.81-.88-.62.75,2.14.75,2.51.13,1.12-.13.88a10.19,10.19,0,0,0-1.75-.76,16.54,16.54,0,0,0-2.38-.06h-.88s-1.07.94-1.13.75-.12.82-.12.82l.62.62,2.26.94,2.13,1.32.82,2,.94,1.88s-.63,3.88-.75,4.08a17,17,0,0,1-1.45,1.06l-4.07-.07s-2-.43-2.2-.49a9,9,0,0,0-1.24.09c-.84.09-1.79.18-1.82,0s-.94-.19-.94-.19l-.45-.5h-1.12l-.94,1.06-1.38.07v1.12s.56,2.58.5,2.39-.25,3-.25,3-1.35,2.73-1.49,2.93c0,.09-.08,1.84-.08,1.84l.82,1.32.13,1.56s-.63,1.44-.38,1.31a4.36,4.36,0,0,1,1-.05c.62,0,1.31,0,1.35-.13s1.25-.82,1.43-.38.89,0,1.08.76a11.35,11.35,0,0,0,.94,2c.06.19.56.37.56.37l.19.51-.38.31-1.56,3.51-3.46,2.44-2.06,1.31L361.3,249l-.88,1-.25,1.94a16.24,16.24,0,0,1,.12,2.57l-4.7,4.45-2.5.56-1.39,2.38a21.31,21.31,0,0,0-2,2.07,15.55,15.55,0,0,1-1.06,1.51s.06,2.5,0,2.12-2.7,2.07-2.7,2.07-.5,2.88-.62,3-1.38,2.32-1.57,2.25-.37,1.5-.37,1.76.62,1,.62,1,.88,1.7.94,1.51.06.57.06.57l-.87.87a12.57,12.57,0,0,1,.94,1.64v3.87l-1,2.14-.5,2.76-1.51,1.19.07.75,1.32,1.06.19,1.19-.38,1.32v1.32l.94,2.19s.94.75,1.13.56,2.06,1.19,2.31,1.63,2.57,3.2,2.57,3.32a4,4,0,0,0,.38.75l1.12,3.83s5.46,4.51,5.58,4.32,5.83,4.07,5.83,4.07,4.58-2.25,4.52-2.06a28.55,28.55,0,0,0,3.88-.19l2.38.37,1.75.82,6.4-2.94,1.25-.95,4.95-.18,2.38.93a17,17,0,0,1,1.57,2.7c0,.38.94,2.06,1.06,1.81s5.58-.49,5.77-.43,2.57,2.38,2.57,2.38l-.13,2.2-.38,3.88-.75,1.88-.75,1.69-.18,1.19s5.63,8.27,5.63,8.34,1.44,3.44,1.44,3.44l1.7,4.33,1,2.44-1,1.37,1.63,4.21-.57,4.13-2.44,5.33-1.07,3.94.32,5.27,2.93,6.08,3.08,6.95.31,7.65,2.45,4.57,1.76,3.69,1.69,4,.87,1.19s.13,2-.07,2-1.12.07-.86.44,1.68,2.88,1.68,2.88l.06,1.13,2,1.13,1.76-.82a13.68,13.68,0,0,1,1.94-.24,22.2,22.2,0,0,0,2.63-.82l3.76.56,2.63-1.37,2.89-.19s4.94-4.83,4.94-4.7,4.57-5.89,4.57-5.89l2.33-2,1.31-3.95-.19-2.56s.44-1.32.88-1.57l4.7-2.76.88-4.14-.82-4.07a14.79,14.79,0,0,1-.63-1.81,9.26,9.26,0,0,1,.44-1.39l4.14-3.69s.94-1.19,1.38-1.63a38.33,38.33,0,0,1,4.31-2.13l2.64-2.56.44-9.46s-.94-3.52-1-3.83-1.88-6.26-1.88-6.52-.62-3.88-.7-4.2,1.44-4.51,1.44-4.51l2.08-4.07,8.46-9.72,4.77-3.81,7.2-11.79,2.32-5.45.49-5.51-1.49-.25a11.36,11.36,0,0,1-.95,1c-.18.13-4.51.38-4.51.38l-5.26,1.56-2.57.94-2.51-2.63.38-1.88-3.38-4L467,289.87s-2.39-1.83-2.26-2a33.28,33.28,0,0,0-1.32-4.45c0,.12-2.38-2.19-2.38-2.19L461,277l-2.57-4.2-2.81-5.14s-2.39-5.89-2.64-6.21-1.18-1.87-.87-1.81a22,22,0,0,0,2.56-.25s4.2,4.95,4.2,5.2,2.51,4.45,2.51,4.45a27.26,27.26,0,0,0,1.88,2.44,19.22,19.22,0,0,1,.37,2.64,29.24,29.24,0,0,0,1.13,3.07l3.57,3.2.76,2.31,3.25,3.57.63,2.26-2.19-2s-.69,1.13-.44,1.32,2.44,2.51,2.44,2.51l1.08,3.19.81,3,1.19,1,3.51-.69.62-1.38h3.45l1.5-1.12,1.87-.26s1.45-1.44,1.57-1.5l5.71-2.5s.12-1.83.37-1.83,5.83-1.75,5.83-1.75l.57-2.13,2-.13.56-1.43,1.94-1.19.25-3.14L507,279l.44-1.07-.5-.68,2.2-3.2.06-1.13-2.13-1.94-1-1.06a20,20,0,0,1-3.52-.63c-.12-.26-1.43-3.26-1.43-3.26,0-.94.06-2.64-.13-2.51s-1.25,1.31-1.25,1.31l-3.88,3.58-3.39.88s-1.12-.32-1.19-.5-.19-3.08-.19-3.08a18.93,18.93,0,0,1-1.5-1.94c-.06-.25-1.13,2.2-1.13,2.2s-1.63-2.2-1.45-2.27-.75-2.18-.75-2.18L483,257.72l-.19-1.94a16.31,16.31,0,0,1,1.82-1.76c.25-.06,2.5-.38,2.76.44s2.13,3.58,2.13,4a11.41,11.41,0,0,0,3.19,2.82,5,5,0,0,1,1.82.81,11.15,11.15,0,0,1,1.43,1c.32.3,1.13.12,1.13.12l2.07-.32s1.69-1.62,1.76-1.31,2,.44,1.75.88a3.42,3.42,0,0,0,.25,2.07c.19.38,8.64,1.69,8.64,1.69l3.9.5s4.12-.38,4.37-.38,2.89.26,3.14.19a29.65,29.65,0,0,1,3.2,3.19A199.26,199.26,0,0,0,474.59,162.5Zm-68.29,31,.44-1.69s1.94.31,2,.56.13,0,.29-.1a.52.52,0,0,1,.71,0c.5.44,1.13.37,1.2.75s.43.81.49.56a8,8,0,0,0,.06-1.06s-.55-.31-.87-.51a.58.58,0,0,1,.06-.93c.31-.19,1.19-.7,1.44-.51s1.38-.25,1.38-.25.19-.38.31-.56.76-1.88.76-1.88a1.07,1.07,0,0,1-.57-.75,4.13,4.13,0,0,1,.88-2.26c.18-.06,2.64-1.5,2.64-1.5s.93-1,.56-1.32-3.2-1.69-3.2-2a11.28,11.28,0,0,1-.13-2.57,10,10,0,0,1,1.51-2.07c.19-.25,1.57-1.94,1.82-1.88a4,4,0,0,0,1.43-.25c.26-.13,2.45-1.13,2.07-1.19s.13-1.19-.06-1.13.19-1.44.63-1.56,1.18-.69,1.38-.69,1.69.06,2.07.12h.06a3.51,3.51,0,0,0,.63-.12c.49-.12,1.06-.24,1.18.11.19.57.69.69.25.88a13.23,13.23,0,0,0-2.06,1.63,18.36,18.36,0,0,1-2.76,1.88,3,3,0,0,0-.88.5.39.39,0,0,1-.37.06c-.15,0-.18-.08-.25.69a7.79,7.79,0,0,0-.07,2.95c.25.44.43,1.12.19,1.44s-.07.5,0,1.06.83.82.88,1.07,1.06.75,1.06.75c.5-.06,1.08-.12,1.19.13a.28.28,0,0,0,.38.12l1.06-.25s1.07-.63,1.45-.56a2.71,2.71,0,0,0,.56,0,1.9,1.9,0,0,1,.75,0,4.68,4.68,0,0,0,1.43-.22,6,6,0,0,1,1.14-.22,3.79,3.79,0,0,0,1-.25c.53-.16,1.09-.33,1.16-.19s1.07.19,1.07.19l.75.56a3.23,3.23,0,0,1-.94,1.38c-.19.12-.81.63-1.19.5a1.52,1.52,0,0,0-.47,0,1.5,1.5,0,0,1-.66-.08,8.44,8.44,0,0,0-1.69-.45c-.25,0-3.19.7-3.19.7l-1.5.44-.26.88.19.18,1.5.94c0,.32.63.13.5.88a4.79,4.79,0,0,1-.37,1.44c-.19.38-.94,1.06-1.13.62a6.15,6.15,0,0,0-1.38-1.44c-.24-.18-1-.06-1.44-.06a1.6,1.6,0,0,0-1.32,1.32c0,.69-.43,1.57-.25,2.25s1,1.58.63,2a5.56,5.56,0,0,1-1.62.94c-.38.19-1.26.81-1.57.94s-1.26.5-1.45.06-.56-1.13-.56-1.13-.31-.62-.44-.43-.81.25-.81.25l-1.63.62-1.06.76c-.2.12-1.14.12-1.51.31s-1.5,1.13-1.81.69a.27.27,0,0,0-.38-.11c-.15.05-.3.11-.51-.27-.37-.69-.25-1.44-.69-1.31s-1.44.37-1.56.62-.25.25-.5.5a7.7,7.7,0,0,1-2.07.44v-.12h0Zm49.84,48.15h0c-.47,1.23-.47,2.82-1.13,4.05s-.94,1.87-1.41,2.63-.47,1.78-1.22,2.25-1.88,1.13-2.54.66-3.28-.37-3.57-.28-3.47-.09-3.85.56-2.81.19-3.2,0-5-2.07-5.35-2.16a21.86,21.86,0,0,1-3.11-1.41c-.38-.28-2.72-.57-2.81-.85s.18-.65-.2-.56a26.51,26.51,0,0,0-3.47,1.21c-.38.3-1.22,1-1.22,1s-1.14,1.12-1,2,1.13,1.5.76,2a6.16,6.16,0,0,1-1.69,1,13.26,13.26,0,0,0-1.89-1.5c-.47-.19-4.88-.84-4.88-.84l-1.79-2.07s-2.81-1.88-3.1-2-3.38,0-3.86-.37-2-2.35-2.72-2.26-.47-1.12-.19-1.31a4.89,4.89,0,0,0,1-2.07c-.1-.28.46-1.87-.47-2.34s-.29-2.08-.29-2.08.94-.19.57-.19-1.79.1-2.17-.37-.47-.66-.84-.47a11.88,11.88,0,0,1-3,.47c-.28-.1-2.53.18-2.91.18s.09.1-.37,0a4.28,4.28,0,0,0-2.45,1.13c-.06.23-.76.15-1.38.07a4.26,4.26,0,0,0-.88-.07c-.28.1-3,.1-3,.1l-4.51.75s-3,1.51-3.1,2-1,1.22-1.31,1.4-2,0-2.08-.28-3.1.1-3.1.1-1.22-.66-1.59-.38-.38-1.22-.38-1.22l.47-1.12,1.69-1.13,4.05-.76,2-1.31,1.22-.47.75-2s1.41-.28,1.31-.57-.46-1.6-.46-1.6l2.72-4.22,3.85-1.88.66-1.32s-.37-1.69-.09-2a15.35,15.35,0,0,1,2.82-.85l3.2,1s1.69-1.12,2.06-1.31,2.16-1.22,2.16-1.22.19-.85.57-.76a2.47,2.47,0,0,0,.57,0c.62,0,1.46-.07,1.59.46a22.24,22.24,0,0,0,1.6,3.11l2.16,2.26,2.07,1.59,2.54.94a16.52,16.52,0,0,0,1.78,1.41,14.11,14.11,0,0,1,1.69,1.7l.75,1.3a10.25,10.25,0,0,1-.84,1.52c-.38.46-1.51,1.69-1.79,1.59s-2.45-.47-2.45-.47l-2.35.28a.76.76,0,0,0,.29,1c.66.47,1.41.37,2.06.75s2.36,1.13,2.36,1.13,1.13.18,1.13.46.37-.75.28-1.41-.19-1.49.47-1.69,1.69,0,1.69-.28a1.45,1.45,0,0,1,.29-.66l.84-1-.09-.65.85-.67s-.47-.55-.85-1-.75-.75-.48-1.22,1.22-1.13,1.7-.75,1.88.56,1.78,1,0,1.12.19.75a7.26,7.26,0,0,0,.1-1.88s-.76-1-1.42-1.12a21.79,21.79,0,0,1-2.82-1.13c-.46-.19-1.31-.66-1.31-.66s.37-1-.18-.94l-.28,0c-.71,0-2-.25-2-.49s-1.69-1.6-1.78-1.88-1.6-2.35-1.6-2.35a6,6,0,0,1-.94-1.13c-.1-.28-.19-.75-.38-1.5s1.88-2.63,1.78-2.35.48.66.86,1.5,1.87,2.26,2.06,2.82a9.39,9.39,0,0,0,2.72,2.35c.48.18.75.75,1.69,1.13s.86.56,2.08,1.12,1.4.76,1.59,1,.94.19,1.22.66.66.56.66,1,.38.47.18,1.41-.46,1.22-.36,1.41,1.78,3.67,2.44,3.67,2.63.75,2.35,1.87,1.22,2.63,1.22,2.63,1.25.09,2.12.23c0-.66-.1-1.71.61-2.11s2.06-.94,1.87-1.4a3.72,3.72,0,0,0-1.13-1.88c-.74-.56-1.5-.86-1.69-1.79s-.47-2.17.38-1.79,1.6,2.17,2,.94,1.31-2.07,2-1.78,1.89.75,1.8,1.12a21.49,21.49,0,0,0,.84,3.39s.38.29.56,1.69,1.41,1.79,1.23,2.26-.76.74.75.94,2.91.46,2.91.84,1.22.57,1.41.85,1.31.84,1.5.28.57-1.69.85-1.5,2.63.19,2.82.94,1.79.75,1.79.94,1.41-.46,1.41-.46,2-1.51,2.53-1.23c.22.11.59,0,1-.15.57-.21,1.13-.42,1,.33C455.32,239.29,456.54,240.43,456.07,241.64Zm9.4-16.54-2.07,2.07-3.57-.47h-2.44l-2.07-.75a7.5,7.5,0,0,1-1.69-.76,12.58,12.58,0,0,0-2.07-.94l-3.76.85-2.92.85-1,.94-3.48-.85-2.06-1-1.13-1.23h1l-.37-1.5.18-1,.94-.57.66-2.72,1.13-.47.28-1.41s.94-.85,1.23-1.13,1.22-1.6,1.22-1.6l2.25.94s2.35.29,2,.38-1.5,1.41-1.5,1.41.84.47,1.23.75,1.22.75,1,1.32c-.14.42.72.47,1.16.47h.25l.56-.94,2.63-.66.94-.47-1.51-.46s-1.31-.48-1.12-.76l1.41-2.17s3.1-.93,3.38-.93,2.17-.38,2.17-.38-1.5,1.51-1.7,1.79.1,1.22-.37,1.6a6.68,6.68,0,0,1-1.41.85c-.29.09-.1,1,.18,1.13s1.23.46,1.23.46l4.13,2.16,2.54,2.54,2,1.6S465.75,224.82,465.47,225.1Zm9.49-7.23,1.78-2.07s1.23-.65,1.51-.47a.17.17,0,0,0,.1,0c.32,0,.85-.62.94-.88a10.49,10.49,0,0,1,2.25-1.69c.37-.19,1-1,1.41-.56a10.9,10.9,0,0,0,2.72,1.22s.85.19.75.56-.84,2.82-.84,2.82a9.06,9.06,0,0,0-1.88-.37c-.18.09-1.5.56-1.22,1.31s-1,.29-.94.66a2.1,2.1,0,0,0,.57,1.13c.28.19,1.87,1,2.06,1.59s2.81,2.26,2.81,2.26a.53.53,0,0,1,.2.57c-.09.38-.29,2.35,0,2.35a9.26,9.26,0,0,0,.93-.1s.86-1.78,1.14-1.59a5.61,5.61,0,0,1,1.69,1.69c.28.65.84,1.31.56,1.5a7.1,7.1,0,0,1-2,.09c-.37,0-1-.47-1.23-.28a1,1,0,0,0-.28,1.22,5.6,5.6,0,0,0,1.14,1.6,4.22,4.22,0,0,1,1.4.85c.85.75,1.13,1.12.85,2a3.1,3.1,0,0,0,0,1.88,6.12,6.12,0,0,0,.47,1.22,1.37,1.37,0,0,1,.18.65l-2.71.47-2.36.29s-2.07-.85-2.16-1.22-.56-1.22-.85-1a2.7,2.7,0,0,1-1.5.19c-.28-.09-1.32-.94-1.32-1.31s-.29-1.22.19-1.6,1.41-1,1.22-1.32a6,6,0,0,1-.28-1.69c0-.19,0-.37.57-.47l.56-.09s.18-.56-.1-.85-2-1.5-2.16-1.78-2.26-2.25-2.54-2.55-1.5-1.12-1.5-1.12l-.66-1.41.56-1.78-1.68-.38-.38-1.22Z" transform="translate(-110.58 -98.89)"/><path class="cls-2" d="M194,156.89c-.38.63,3.25.88,3.5.38s2.51-.13,3-.88,3-2.26,3.38-2-.75,1.51-1.13,1.63,1.26.25-.38,1.51-1.24,2.38-1.24,2.38-1.38.63-.38.88a23.1,23.1,0,0,1,2.88,1.12s.12.88.12,1.13.63,1,2,.13,4.14-1.88,4.51-1.5,1.26-.13,2.52-.26a9.81,9.81,0,0,0,2.25-.5l1.63.26a1.35,1.35,0,0,0,1,0,2.07,2.07,0,0,1,1.67.23,6.62,6.62,0,0,0,3,.76,19.48,19.48,0,0,1,2.13-1.5c.38-.13,1.13-.25.76-1.13s-1.76-2.26-1.38-2.52,1.25-.49,1.13-2.87.25-2-.38-1.88a14.59,14.59,0,0,0-2.13.88l-.5-.13c-.25.75-1.38,1.25-1.64,2s-1,1.12-1,.5-.88-.76-1-1.26-1.25-.37-1.87-.25a3.05,3.05,0,0,1-1.29-.37c-.67-.26-1.37-.53-1.72-.25-.62.5-1.26-.25-1.76-1.38s-1.05-1.9-1.74-1.9h-.14c-.75.13-5.39,0-5.39,0l-2.75.25s-1.5.38-1.5,1.14a1.38,1.38,0,0,1-1,1.5c-.76.25-6.27,2.26-6.27,2.26S194.33,156.26,194,156.89Z" transform="translate(-110.58 -98.89)"/><path class="cls-2" d="M258.61,207.43h0Z" transform="translate(-110.58 -98.89)"/><path class="cls-2" d="M239.32,149.13h0a11.34,11.34,0,0,0,3.76.62c.79,0,1.32,0,1.73,0a3.66,3.66,0,0,1,1.65.22c1,.37,1.88,1,2.26.12s.87-.87,1.25-1.38,0-1,.62-1.25,1.76,1,1.76,1-1.38.87-.76,1,2.38.51,3.27.63.12.37,1.63.51,2.12-.14,4-.14,3-.87,3.64-.62a10.38,10.38,0,0,0,3.38.13c.62-.13,2.14-1.5,1.51-1.5s-3-.64-4-.76-4.15-.25-4.89.13a2.77,2.77,0,0,1-2.13.37c-.5-.25,2.13-2.25,3.88-2a15.23,15.23,0,0,0,3.23,0,12.13,12.13,0,0,1,2-.08c.87.12,3,.5,3,.5a1.4,1.4,0,0,0,.62-.63c.13-.37.25-.75.25-.75l1.26,1.13s8.26-3.38,8.64-4,5.64-2.25,6.4-2.12a15,15,0,0,0,3.1-.9c1.56-.53,3.2-1.06,3.67-.86.86.38,5.5-1.12,5.5-1.12s3.39-.76,4.14-.76,1.13-.87,0-.75-10.53.13-12.78,0c-.67,0-1.63-.05-2.66-.05-2.46,0-5.37.09-6,.18-.88.12-5.89,1.5-8,1.38a42.6,42.6,0,0,0-5.37.37,39.94,39.94,0,0,1-4,.37c-.34-.11-2.6-.22-2.87-.24.09.12-3.66,3.11-4.27,2.25s0-1.5-.63-.88-.5,3.51-.5,3.51c.75.51,2.38,2.26,3.51,1.51a2,2,0,0,1,2.13-.26c.37.13-1.75,1.76-3,1.76s-5.27,1.5-5.27,1.5a16.91,16.91,0,0,0-2.13-1.75,21.39,21.39,0,0,0-2.87-.25c-.38,0-.88-.37-1,.75s.13,2.88-1.12,2.63a3.55,3.55,0,0,0-1.29,0,1.26,1.26,0,0,1-1-.09c-.63-.38.88-2.26-.88-2.38s-2.76-1.38-3.76.62S238.32,148.74,239.32,149.13Z" transform="translate(-110.58 -98.89)"/><path class="cls-2" d="M302.09,342.86h0s-3-.62-3.13-1a46.89,46.89,0,0,0-5.38-4.76c-.06.06-.5-.34-1-.74s-1.26-1-1.4-.64c-.25.63-4.14.63-4.14.63l-4.13-1s-1.75,1.26-1.38.75.13-3.5,0-3-6.27-2.63-6.27-2.63l-2.13,1.87V330l-3.25-2,.38-2.63-1.52-1.26s-.24.38-.36.13-1-5.26-1-5.26L262.61,315l-5.76-.25-5.27-2.89-1.13-2.63s-3-1.37-3-1.75c0-.23-.33-.22-.65-.21a1.25,1.25,0,0,1-.47,0c-.25-.12-.12-1.37-.12-1.37l-1.39-1.14-.5-.34-1.22-.37-.75-1s2.72-1.22,2.44-1.12-6.1.93-6.1.93l-.57,1.12-2.72-1.4-4.61-.29s-3.29-1.31-3.2-1.68-1-1.79-1-1.79a16.8,16.8,0,0,1-.94,2c-.19.19-2.53,2.17-2.53,2.17l.18,3-1.6-1.7,1.13-1.6v-2.25c0-.29,1.41-.94,1.41-.94l-.56-1.22s-1.69.47-1.69.75-2.26,1.6-2.26,1.6l-2.72,1h-1.23a11.9,11.9,0,0,1-1.51,2.07c-.27.09-.17,1.88-.17,1.88s-3,3.38-3.21,3a43.17,43.17,0,0,0-3.37-3l-3.77.46-2.16,1.14-2.63-1.79-2.07-3.2.2-3.75,1.12-4.15.47-2.72-2.82-2.07s-5.73.47-5.73.19-.77-.11-1.53-.09-1.53.05-1.48-.1,1.13-2.06,1.13-2.35.75-2.44.75-2.44l1.22-2.44,1.6-4.69.93-1.61-4.69-.28-2.82,1.13-1.6,4.7-8,2.16-2-1.5s-.19.85-.09.37-2.45-3.76-2.45-3.76l-1.22-4.6s3.2-9.5,3.1-9.3.1-3.49.1-3.49l10-6.57,3.85.56.94.94,2.36-.38,2.35-2.35,3,.38,2.91-.56,1.79,2,2.62-1,1.42,1.51.85.93v1.6l-.66,1.5.66,3.39,1.88,2.63,1.22.47,1.5-4.13-.28-3.86-.66-3.11V253l3.86-4.69,5-3.58,3.95-2.25,3.48-3.76-.19-3.57,1.51-.28,1.49-3.19,1.51.17,2.92-3.66,4.88-1.69,3-.56.94-1-1.12-.94,2.34-3.48,7.43-2.92,4.52-1.31-3.68,2.35.76,1.78,2.72-.75,2-1.22,5.17-1.41s1.22-2.07,1-1.6S265,215,265,215l-.56-1.13.19-1.5-1.5.56-2.27,2.45-3.66-.18-1.68-2.55,1.59-2.16,1.5-3a11.65,11.65,0,0,1-2.53-.76L252.4,208c-.37,0-3.85,2.07-3.76,1.79s-1.79,1-1.79,1l4.79-3.85,2-.29,2.26-2.07h10.81l3.66-.75,4.89-2.63.38.47-2.07,2L271,206.3l-2.45,2.63-1.22,1.6,3.86.19s3,.08,3.29,0S275,212,275,212l1.59-1.12.85,2.16,2.82-2.16-.85-2.45.76-2.26-3.29.1v-1.22a8.25,8.25,0,0,0-1.26-1.24c.13-.09.48-.39.84-.69s.7-.59.83-.68a4.93,4.93,0,0,1-.79-1l2.26-2.83-1.13-3.19-.38-1.59-2.91-1.41-1-1.41L272,190l1-2.44-.47-1.79s-.84-5.83-.93-5.64-4,3.2-4,3.2l-3.94,2-2.07-1.79.19-2.36,1.79-1.69-2.92-.93-.19-.76s-2.63-2.63-2.81-2.44l-.85.85-6.21-.57-2.16,3.76-.47,2s-3.4,3.4-3.81,3.67c.25-.08,1.84,1.51,1.84,1.51l-1.42,3.37-5.35,3.11-2.63.38s-1.6,5.83-1.51,6.2S233,201,233,201l-1.6,1.13-.66-2.07a20.94,20.94,0,0,0-1-2,13.21,13.21,0,0,0,1.94.38l.29-1.32-1.51.1.66-2.17,1.41-2.34-4.89-.38-1.11-1.32L224,190.7l-.2-1-1.69-1-2.07-.94-2.25.28-.09-2,.56-1.88-2.26-.37s3.95-4.05,3.86-3.86S231,174.34,231,174.34l1.32-1.4,2.16-.2,4.7-2.15,3.57-2.45.38.19-2.72,2.54-.75.93-2.17,1,2,.28-.29,1.13,2.17-.38,2.16-1.78,1.7.57.75.83,2.34-.09-.09-1.78L244.51,169l-.86-.85-.37-.94,1.59.2,1.33,1.12,1.41-1.41,2.82-.37,2.81-2-.18-1.21,2.16-2.07-1.41-1.5,3.76-.09,3.28.09s1.6-.75,1.89-.28a22.38,22.38,0,0,0,2.72,2.25l-.94.85-3.86.47-.93,1.87,2.82.38,2.16-2.25,2.35-.19.37,2.25s-2.62,1.51-3,1.6-2,.85-2,.85l-.09,1.69-2.54.28-2.63-.46-1.22.09L254,171l1.6,1.41a28.13,28.13,0,0,0,2.73-1.22c.37-.28,1.6-.85,1.88-.37a14.75,14.75,0,0,0,1.87,1.78l1.33,2.55,1.22.37,3.75,1.22a17,17,0,0,1,2.62.82c-.06-.25-.26-1.57-.26-1.57l-2-2.35s-.09-.66.56-.48a11,11,0,0,1,2.26,1.59c.28.1,2.16,1.24,2.16,1.24l.75-2.07,1.69-1-.65-1.22-.94-1-1-1.22.09-1.41.56-.38c.28-.18,1.13-.84,1.32-.47s2.07,2.82,2.07,2.82l1.78.37.85-1.4a18.45,18.45,0,0,1,2.34-.19c0,.09.19-1.13.19-1.13l2.17-.56-3.11-2.73-1.68-.85-1.33.38-1.21-1.41,1.31-1.22.57-1.7L278,158l-2.35-.47-.57-1.23a8.87,8.87,0,0,0-2.26-.09c-.28.19-1.69-1.69-1.69-1.69l-1.22-1.59c-.19-.1-.85-.76-1.22-.66s-4.33.19-4.33.19l-.94.28-1.21-.95-4.9,1.23-2.53,2s-.19-1.13,0-1.41a18.72,18.72,0,0,1,2.25-1.5c.28-.18-2.16-.28-2.16-.28a43.24,43.24,0,0,0-4.7,1.78c-.19.28-3.67,3-3.67,3l.1,2.26,3.2.47,1.22.27-.85.76-.65,1.41-2.07,1.13-2.54,1.87-2.17.85-.37-1.5,1.88-1.13s-.38-2.35-.57-2.16a2.55,2.55,0,0,1-1,.06c-.58,0-1.19,0-1.24.13a14.1,14.1,0,0,1,.1-1.78l-.1-2-.47-1.51a20.76,20.76,0,0,1,1.88-1.41c.28-.09,3.29-.28,3.29-.28l4.79-2.72-3.95-.19s-3.66.09-3.85.47-2.62,2.91-2.62,2.91L239,155.64l-5,3.11-.19,2.16-2.07-.38-1.5-.28-3.75,1.5v2.07l-6.88.38s-3.28-.48-3.28-.94-1.22-1.41-1.6-1.41-4.61,1.31-4.61,1.31l-.18,1.31L205,164.2s-4,.74-3.95.37-2.16-.19-2.16-.19l3.38-1.5L200,161.75l-4.24-.66-3-.93-3.38.47-.38-1.41-3,1.21-.59-1.37a199.8,199.8,0,0,0-50.05,87.37l.36.66.56,7.71,1.69,3.47L136,259.59l2.16,3,.85.1,1.7,2-.66,2.63,1.78,1.41,1.69,2.64.29,1.31,1.6-1.6-1.6-3.29a12.4,12.4,0,0,1-1-3c.1-.57-1.5-4.8-1.5-4.8s-1.51-3.19-1.32-3.47-1.13-2.16-1.13-2.16l.66-3.86,2.73.57s.47,3.56.47,3.94a26.52,26.52,0,0,0,.66,2.64l3.57,5-.56,2.54,6.85,8.18-.09,3.29-1,1.59.56,2.26,5.74,4.23.93-.18,1.69,1.69,6.2,3.1,3.11.75,3.67-1.13,2.35,1.13,3.57,4.14,3.66.93,3.76,1.33h1.79l.47,2.15a31,31,0,0,0,2.07,2.45c.37.28.09,2.73.09,2.73l1.6.84,1.88,2,1.22,1.14,1.32,1.5.84-.57,1.7.47,2.43,2.26,1.6-.94-.46-1.79,1.49-1.5h1.32l1.42,1.13-.1,1.31,1.69,2.73.1,7.61-1.51,2.45-2.07,1.41-.09,2.25-2.16.84-.85,3-1.31,2.63.28,2.26,1.88,1.69-1.7,1.79L201.09,340l1.12,3.57a15.18,15.18,0,0,0,.56,1.6c0-.19,1.79,1.23,1.79,1.23l3.29,6.57,3.19,4.61s4.64,9.36,4.74,9.43c1.4,1,11.62,8.4,11.62,8.4l1.75,9.14.51,19.3,1.5,5.52-.63,11.16-.5,2.25a29.87,29.87,0,0,1,2,4c0,.5.38,4.88.38,4.88l1.37,4.77,1.63-.13-1-2.75,1.26.12.87,4.39.12,1.75-1-.88-.88.88-.63.75,1.25,1.13-.62,1.75-.25,2.26,1.75.25,1.26,1-1.26,2.13s7.77,13.66,14.29,15.29,8.39,2.13,8.39,2.13l2.77-1.51.86-1.12-5.76-2-4.38-4.77-.88-2.5,1.38-1-.25-1.89s0-1.37.49-1.75a11,11,0,0,0,1.51-2.25L253.2,447l-2.5-2.5.25-2.89,1.51-.87a5.92,5.92,0,0,0-.13-2,3.2,3.2,0,0,1,.75-2.38c.38-.13,1.37-1.63,1.37-1.63h-1.74l-1-.37-1.26-2v-1.51l2.13.62,2-.37,1.13-1.63s-.38-1-.5-1.38.25-2,.62-2.13a16.68,16.68,0,0,1,2.63.12l4.26-1.12s1.63-2.89,1.51-3.39a14.82,14.82,0,0,1-.13-2.13s0-1.12-1-1.26-1-.49-1.25-1.5a8.62,8.62,0,0,0-1-2.13l-1.25.26,1.13-1.13,2.51,1.87,3.75.64,2.89-2.89,2-4.89.88-3.63h1.87l2-3.64.75-3.38-.62-4.14.87-1.49,6.52-4.39,4.89-1.63,1.64-1.26a32.26,32.26,0,0,0,2.49-3.76c0-.37,1-5.26,1-5.26s1.12-5.76,1-6.13.25-5.4,0-5.52.12-1.51.12-1.51l4.77-6.76,2.25-5.15s1.64-2.62,1.39-3.13S302.09,342.86,302.09,342.86Z" transform="translate(-110.58 -98.89)"/><path class="cls-2" d="M277.31,202.45s0,0-.06,0h0a0,0,0,0,0,.06,0Z" transform="translate(-110.58 -98.89)"/><path class="cls-2" d="M488.45,359.44c-.25,0-.76.58-.76.58a25.21,25.21,0,0,0-2.12,2.65c-.14.37-1.76,2.37-2,3s-2.25,2-2.25,2l-3.63,1.51s-1.25.12-.88.63-.25,1-1.12,2.12a2.52,2.52,0,0,0,0,2.63l.49,2.51v2.38s-.75,2.63-1.13,2.76a3.35,3.35,0,0,0-1.37,2.13,5.34,5.34,0,0,0-.25,2.13s.25,1.88-.13,2.26.63,2.25,1,2.88a3.17,3.17,0,0,0,1.38,1s.87.75,1.25,1,2.25-.49,2.25-.49,1.38-.63,1.75-.88.63-.38,1.38-1.63.26-.88.37-1.25a20.33,20.33,0,0,0,1.26-4.14,31.84,31.84,0,0,1,1-3.89c.5-1.88,1.13-2.38,1.26-3.88a14.89,14.89,0,0,1,.37-2.64c.12-.5,1.38-2.37,1.5-3.63a4.38,4.38,0,0,0-.12-2.38c-.25-.5,1.51-.13,1.75-.88.15-.43.13-.37.11-.3s0,.09,0-.07a28.84,28.84,0,0,0,.26-4.13c0-1.38-1.38-3.52-1.52-3.89A.1.1,0,0,0,488.45,359.44Z" transform="translate(-110.58 -98.89)"/><path class="cls-2" d="M271,177.54h0s0,0,0,0h0S271,177.57,271,177.54Z" transform="translate(-110.58 -98.89)"/><path class="cls-2" d="M351.64,159.4s.76-3.76.2-4.14,2.25-2.63,2.25-2.63,4.13-1.88,4.32-2.44-1.12-.38-1.12-.38l.37-2.82,2.63-.94a22.33,22.33,0,0,1-1.88-3.38c-.37-1.12,4.52-1.69,4.52-1.69l8.64-3.95-10.33,1.13-.38-1.31L350,134.4l-21.8.76-2.44,1.31h-7.53l-10.52.94s-10,1.31-10.53,1.69,1.13.94,1.13.94l-.18,1.32-12.23,1.5-.74,1.32,1.5,1.5c.18.19,5.26,1.32,5.26,1.32l6,.75a27.42,27.42,0,0,1,3.94,2.06c.57.56.38,2.26.19,3.2s-.75,1.13-1.5,2.26,1.5.56,1.5.56l2.64,1.31a12,12,0,0,0-1.89.2c-1.13.19-2.63.56-2.63.56L300,160l3.77-.75-.39,1.31-2.63.57-2.62,3.19-.19,6,.56,5.08,1.5,4.13,2.45.38,2.82,1.69,3.76-.19,3.76-5.07,3.94-3.76,1.13-2.07,1.89-1.13,4.12-.93,5.27-1.14,5.45-3.57c.56-.37,14.1-4.5,14.1-4.5Z" transform="translate(-110.58 -98.89)"/><path class="cls-2" d="M233.31,152a7.84,7.84,0,0,1,0,1.87l-1.38-.25s-.12-1-.49-1-1.51,1.38-1.51,1.38,1.63.63,1.88,1.13.88,1.12.88,1.5,4.13-1.25,4.13-1.25l2.26-1.13s.12.25.25-.38-.25-1.12,0-1.25,1.11-1.53.43-1.53l-.18,0c-1,.25-3.14,0-4.14.37a2.42,2.42,0,0,1-1.22.06C233.65,151.48,233.23,151.41,233.31,152Z" transform="translate(-110.58 -98.89)"/><path class="cls-2" d="M213.25,148.12s.5,2.13,1.51,1.5,3.88,1.51,3.88,1.76,1,.13,1,.13L224,150l2.45-.38a9.86,9.86,0,0,1,2.68.13c.38.25,2.26-.62,2.26-.62l.75-1.26-1.63-.5.38-1.26s-.5-.75-1.62.13-4.27,2.63-4,2.26-1.25.12-1.88-.64a2.69,2.69,0,0,0-1.5-.87s-1.76-.63-2.38-.38,1.12-1.25,1.12-1.25.35-1.26-.29-1.26h-.09c-.74.13-6.89,1.5-6.89,1.5s-2.63,1.51-3.13,1.13-2.38.25-2.38.25l1.26.75C209.49,147.36,213.25,148.12,213.25,148.12Z" transform="translate(-110.58 -98.89)"/><path class="cls-2" d="M241.2,143c.37.12,3.38,1,3.76,1.13a5.17,5.17,0,0,0,2,.25c.5-.12,2.5-1.12,1.76-1.5s-3.14-.89-3.64-1.14a11.08,11.08,0,0,0-2.38-.37l-1.13.25C241.32,142,240.82,142.86,241.2,143Z" transform="translate(-110.58 -98.89)"/><path class="cls-2" d="M229.16,145.11c.51-.25,2.26-1,2.26-1l1.5-1.25.51-.63a3,3,0,0,0-1.36-.71.43.43,0,0,0-.27.08,34.08,34.08,0,0,1-3.14,1.51l-.13.87-2.05.88A8.09,8.09,0,0,0,229.16,145.11Z" transform="translate(-110.58 -98.89)"/><path class="cls-2" d="M251.73,144.74c.49.12,2,.12,2.12-.25a20.85,20.85,0,0,0-.12-3,1.45,1.45,0,0,0-1-.63h-.14A19.45,19.45,0,0,0,250,142,5.45,5.45,0,0,0,251.73,144.74Z" transform="translate(-110.58 -98.89)"/><path class="cls-2" d="M372.13,191.36h0c.44.18.63.44.57.62s.94.32.94.32l.81-.19-.56.88a2.67,2.67,0,0,0,.31.81c.19.26.82,0,.82,0a10.82,10.82,0,0,1,1.7-.18c.18.06-.07.62-.07.62l.57.88s.3,1.25.37,1.62-.51.25-.51.25a8.15,8.15,0,0,1-1.44.13c-.25-.06-.74.44-1.18.94s.06.31.06.31h.93s.08.63.14.89-.76.49-1,.43a5,5,0,0,0-1.38.5l.05.94,1.39.13,1.38.19.25.44s-.89.18-1.14,0-1,1-1,1l-.68.75L372,204.77l.81.37.51-.63,1.26.07,1.36-.19s.83-1,1-1l2.13-.06a7,7,0,0,1,1.76-.19,15.71,15.71,0,0,0,1.63.44,23.16,23.16,0,0,0,2.63-.69s.5-.81.62-1.07-.68-.49-.87-.68.63-.44,1-.63.5-.88.69-1.19-.25-.94-.31-1.12-.94-.14-1.19-.2a7.88,7.88,0,0,0-1.31.06l.05-1.25s-2.94-4-2.88-4.2-.69-1.38-1-1.43a2.05,2.05,0,0,1-1.07-.83c-.37-.49.5-1.12.5-1.12a15.12,15.12,0,0,0,1.19-1.38,1.22,1.22,0,0,0-.31-1.06c-.19-.07-2.38.06-2.38.06s-.62-.5-.56-.69.69-.25.88-.25,1.31-2.19,1.56-2.25-.19-.63-.19-.63l-.87.36-.82,1.2s-.76.19-1.06,0a1.44,1.44,0,0,0-.76-.07,1.26,1.26,0,0,1-.43,0c-.25-.07-.83.75-.83.75a6.12,6.12,0,0,1-1.12,1,3.53,3.53,0,0,0-1.06,1.13,5.11,5.11,0,0,1,.12.88.87.87,0,0,1-.5.37c-.31.06.25,1.13.25,1.13l.76.38s-.45.43-.7.37S371.7,191.17,372.13,191.36Z" transform="translate(-110.58 -98.89)"/><path class="cls-2" d="M364.68,198.75l-1.06.69-.32,1.19.94.57,1.51.31,1.56-.38,1.32-.75L369,200l2.2-.14.25-.93.5-.94v-2.7l1.19-.69-.38-1.75-1.87-.43-1.51-.26-1,.32-.57.81-.75.81c.2-.18.69-.18.57.13a2,2,0,0,1-.63.63h-.74l-.64-.38-.94.12-.31.57.38.88-.63.62.75.63.75.18-.12.88Z" transform="translate(-110.58 -98.89)"/><path class="cls-2" d="M455.43,162.35h0Z" transform="translate(-110.58 -98.89)"/><path class="cls-2" d="M355.41,173.12h0l5.26-1.69,1.13-2.06-2.06-1.69-9.6,1.12-2.82-1.69L343.94,169a24,24,0,0,1,2.26,1.13c.56.37,1.69-.38,1.69-.38v1.69s3,1.69,2.62,2.26S355.41,173.12,355.41,173.12Z" transform="translate(-110.58 -98.89)"/><path class="cls-3" d="M455.51,238.07c.11-.75-.45-.54-1-.33-.36.13-.74.26-.95.15-.57-.28-2.54,1.22-2.54,1.22s-1.41.65-1.41.47-1.59-.19-1.79-.94-2.54-.75-2.82-.95-.66.95-.84,1.51-1.32,0-1.51-.28-1.4-.47-1.4-.85-1.42-.66-2.92-.84-.94-.48-.75-.94-1-.85-1.23-2.26-.56-1.69-.56-1.69a21.49,21.49,0,0,1-.84-3.39c.09-.37-1.13-.84-1.8-1.12s-1.59.56-2,1.78-1.14-.57-2-.94-.56.85-.38,1.79.95,1.22,1.7,1.79a3.71,3.71,0,0,1,1.12,1.87c.19.47-1,.94-1.87,1.41s-.57,1.45-.61,2.11c-.86-.15-2.12-.23-2.12-.23s-1.5-1.5-1.22-2.63-1.69-1.87-2.35-1.87-2.35-3.48-2.44-3.68.18-.46.37-1.4-.19-.94-.19-1.41-.37-.57-.65-1-1-.38-1.23-.66-.38-.47-1.59-1-1.13-.75-2.07-1.12-1.22-.95-1.7-1.13a9.52,9.52,0,0,1-2.72-2.35c-.19-.56-1.69-2-2.06-2.82s-.95-1.23-.85-1.5-2,1.6-1.79,2.35.28,1.22.38,1.5a6.45,6.45,0,0,0,.94,1.13s1.51,2.06,1.6,2.35,1.78,1.59,1.78,1.88,1.28.49,2,.49l.28,0c.56-.09.18.94.18.94s.85.47,1.31.66a20.6,20.6,0,0,0,2.83,1.12c.66.1,1.41,1.13,1.41,1.13a7.16,7.16,0,0,1-.09,1.88c-.2.37-.29-.28-.2-.75s-1.31-.66-1.78-1-1.41.28-1.7.75.11.75.48,1.22.85,1,.85,1l-.85.67.09.65-.84,1a1.45,1.45,0,0,0-.29.66c0,.28-1,.1-1.69.28s-.56,1-.47,1.69-.28,1.69-.28,1.41-1.13-.46-1.13-.46-1.69-.76-2.35-1.13-1.41-.29-2.07-.75a.75.75,0,0,1-.28-1l2.34-.28s2.17.38,2.45.46,1.41-1.12,1.79-1.59a9.82,9.82,0,0,0,.84-1.51l-.75-1.31a14.1,14.1,0,0,0-1.69-1.69,16.52,16.52,0,0,1-1.78-1.41l-2.54-.94-2.07-1.6-2.16-2.25a22.24,22.24,0,0,1-1.6-3.11c-.13-.53-1-.5-1.58-.47a2.17,2.17,0,0,1-.58,0c-.38-.09-.56.76-.56.76s-1.79,1-2.17,1.22-2.06,1.31-2.06,1.31l-3.2-1a15.35,15.35,0,0,0-2.82.85c-.28.29.09,2,.09,2l-.65,1.31L384.07,227l-2.72,4.22s.37,1.32.47,1.6-1.32.57-1.32.57l-.75,2-1.21.47-2,1.31-4.05.76L370.82,239l-.46,1.12s0,1.51.37,1.22,1.59.38,1.59.38,3-.38,3.11-.1,1.79.47,2.07.28,1.22-.93,1.31-1.4,3.1-2,3.1-2l4.52-.76s2.72,0,3-.09a4.22,4.22,0,0,1,.87.07c.62.08,1.33.16,1.38-.07a4.28,4.28,0,0,1,2.45-1.13c.47.1,0,0,.37,0s2.63-.28,2.91-.18a12,12,0,0,0,3-.47c.36-.19.47,0,.84.47s1.78.37,2.16.37-.57.19-.57.19-.65,1.6.29,2.08.37,2.06.47,2.34a4.89,4.89,0,0,1-1,2.07c-.28.19-.56,1.41.19,1.31s2.25,1.88,2.72,2.26,3.58.28,3.86.37,3.11,2,3.11,2l1.78,2.07s4.42.65,4.89.84a13.65,13.65,0,0,1,1.88,1.5,6.16,6.16,0,0,0,1.69-1c.37-.47-.66-1.13-.76-2s1-2,1-2,.84-.75,1.22-1a26.51,26.51,0,0,1,3.47-1.21c.39-.1.1.28.2.56s2.43.57,2.81.85a23,23,0,0,0,3.11,1.41c.38.09,5,2,5.35,2.16s2.83.66,3.2,0,3.57-.47,3.85-.56,2.92-.19,3.58.28,1.78-.19,2.53-.66.75-1.51,1.22-2.25.75-1.42,1.41-2.63.67-2.82,1.13-4.05h0C456.55,240.42,455.32,239.29,455.51,238.07Z" transform="translate(-110.58 -98.89)"/><path class="cls-3" d="M404.16,195.37a7.84,7.84,0,0,0,2.08-.44c.24-.25.36-.25.49-.5s1.13-.5,1.56-.62.33.62.69,1.31c.21.38.36.32.51.27s.23-.09.38.11c.31.43,1.44-.5,1.81-.69s1.31-.19,1.51-.32l1.07-.75,1.62-.62s.7-.07.81-.25.44.43.44.43.38.69.56,1.13,1.14.06,1.45-.06,1.19-.75,1.57-.94a5.56,5.56,0,0,0,1.62-.94c.38-.44-.44-1.31-.63-2s.25-1.57.25-2.25a1.6,1.6,0,0,1,1.32-1.32c.45,0,1.2-.12,1.45.06a6.12,6.12,0,0,1,1.37,1.44c.19.44.94-.25,1.13-.62a4.5,4.5,0,0,0,.37-1.44c.14-.75-.5-.56-.5-.88l-1.5-.94-.19-.18.26-.88,1.5-.44s2.94-.7,3.19-.7a8.44,8.44,0,0,1,1.69.45,1.51,1.51,0,0,0,.66.08,1.32,1.32,0,0,1,.48,0c.37.13,1-.38,1.19-.5s.93-1,.93-1.38l-.75-.56s-.94.06-1.07-.19-.63,0-1.16.19a3.69,3.69,0,0,1-1,.25,5.23,5.23,0,0,0-1.14.22,4.3,4.3,0,0,1-1.43.21,1.89,1.89,0,0,0-.75,0,2.12,2.12,0,0,1-.56,0c-.38-.06-1.45.57-1.45.57l-1,.25a.29.29,0,0,1-.39-.12c-.11-.25-.69-.19-1.19-.13,0,0-1-.5-1.06-.75s-.82-.5-.88-1.07-.25-.75,0-1.06.06-1-.19-1.44a8,8,0,0,1,.07-2.95c.08-.77.1-.73.25-.69a.39.39,0,0,0,.37-.06,3.57,3.57,0,0,1,.88-.51,16.94,16.94,0,0,0,2.76-1.88,12.66,12.66,0,0,1,2.07-1.62c.43-.19-.07-.31-.26-.88-.11-.35-.69-.23-1.18-.11a3.36,3.36,0,0,1-.63.12h-.06c-.38-.06-1.89-.12-2.07-.12s-.95.56-1.38.69-.82,1.62-.63,1.56-.31,1.06.06,1.13-1.81,1.06-2.06,1.19a4,4,0,0,1-1.44.25c-.25-.06-1.63,1.63-1.82,1.88a9.74,9.74,0,0,0-1.51,2.07,11.15,11.15,0,0,0,.13,2.56c0,.32,2.82,1.69,3.2,2s-.56,1.31-.56,1.31-2.46,1.45-2.63,1.51a4.1,4.1,0,0,0-.89,2.25,1.07,1.07,0,0,0,.57.76s-.63,1.69-.76,1.88-.31.56-.31.56-1.13.43-1.38.25-1.13.32-1.44.51a.58.58,0,0,0-.06.93c.32.2.88.51.88.51a6.83,6.83,0,0,1-.07,1.06c-.06.25-.44-.19-.49-.56s-.7-.31-1.2-.75a.52.52,0,0,0-.71,0c-.16.11-.26.22-.29.1s-2-.56-2-.56l-.44,1.69-2.07,1.76h0Z" transform="translate(-110.58 -98.89)"/><path class="cls-3" d="M464.91,224l-2-1.6-2.53-2.54-4.14-2.16s-.94-.37-1.23-.47-.47-1-.18-1.12a6.68,6.68,0,0,0,1.41-.85c.47-.38.18-1.32.37-1.6s1.7-1.79,1.7-1.79-1.89.38-2.17.38-3.38.93-3.38.93l-1.41,2.17c-.19.28,1.13.76,1.13.76l1.5.46-.94.47-2.63.66-.56.94h-.24c-.44,0-1.31-.05-1.17-.47.19-.57-.66-1-1-1.32s-1.23-.75-1.23-.75,1.12-1.32,1.51-1.41-2-.38-2-.38l-2.25-.94s-.94,1.32-1.22,1.6-1.23,1.13-1.23,1.13l-.28,1.41-1.13.47-.66,2.72-.94.57-.18,1,.37,1.5h-1l1.13,1.23,2.07,1,3.48.84,1-.93,2.92-.85,3.76-.85a12.58,12.58,0,0,1,2.07.94,7.5,7.5,0,0,0,1.69.76l2.07.75h2.44l3.57.47,2.07-2.07C465.75,224.82,464.91,224,464.91,224Z" transform="translate(-110.58 -98.89)"/><path class="cls-3" d="M477,219.75l-.57,1.78.66,1.41s1.23.85,1.5,1.12,2.36,2.27,2.54,2.55,1.88,1.5,2.16,1.78.1.85.1.85l-.56.09c-.57.1-.57.28-.57.47a6,6,0,0,0,.28,1.69c.19.29-.75.94-1.22,1.32s-.19,1.22-.19,1.6,1,1.22,1.32,1.31a2.69,2.69,0,0,0,1.5-.19c.29-.18.75.66.86,1s2.15,1.21,2.15,1.21l2.36-.28,2.72-.47a1.31,1.31,0,0,0-.19-.65,6.12,6.12,0,0,1-.47-1.22,3.1,3.1,0,0,1,0-1.88c.28-.85,0-1.22-.84-2a4.21,4.21,0,0,0-1.41-.85,5.8,5.8,0,0,1-1.14-1.6,1,1,0,0,1,.29-1.22c.18-.19.85.28,1.22.28a7.08,7.08,0,0,0,2-.09c.29-.19-.28-.85-.56-1.5a5.61,5.61,0,0,0-1.69-1.69c-.28-.19-1.14,1.59-1.14,1.59a9.26,9.26,0,0,1-.93.1c-.28,0-.09-2,0-2.35a.54.54,0,0,0-.19-.57s-2.63-1.69-2.82-2.26-1.78-1.41-2.06-1.59a2.1,2.1,0,0,1-.57-1.13c-.09-.38,1.23.09.94-.66s1-1.22,1.22-1.31a9.06,9.06,0,0,1,1.88.37s.75-2.44.84-2.82-.75-.56-.75-.56a10.9,10.9,0,0,1-2.72-1.22c-.38-.47-1,.37-1.41.56a10.41,10.41,0,0,0-2.25,1.69c-.09.25-.62.88-.93.88a.2.2,0,0,1-.11,0c-.28-.18-1.51.47-1.51.47L475,217.87v.28l.38,1.22Z" transform="translate(-110.58 -98.89)"/><path class="cls-4" d="M523,266.49c-.24.07-2.89-.19-3.13-.19s-4.38.38-4.38.38l-3.89-.5s-8.46-1.31-8.65-1.69a3.42,3.42,0,0,1-.25-2.07c.25-.44-1.69-.56-1.75-.88s-1.76,1.31-1.76,1.31l-2.07.32s-.81.18-1.12-.12a12,12,0,0,0-1.44-1,5.25,5.25,0,0,0-1.82-.82,11.36,11.36,0,0,1-3.19-2.81c0-.38-1.88-3.14-2.13-4s-2.51-.51-2.76-.45a17.06,17.06,0,0,0-1.81,1.76l.18,2,3.26,3.75s.93,2.14.75,2.19,1.44,2.27,1.44,2.27,1.07-2.45,1.13-2.2a18.89,18.89,0,0,0,1.51,1.94s.12,2.89.18,3.08,1.19.49,1.19.49l3.39-.87,3.88-3.58s1.07-1.18,1.25-1.31.13,1.57.13,2.5c0,0,1.31,3,1.43,3.26a19.17,19.17,0,0,0,3.52.64l1,1.06,2.13,1.94-.06,1.13-2.19,3.2.5.68L507,279l-1.44-.44-.25,3.14-1.94,1.19-.56,1.43-2,.13-.56,2.13s-5.59,1.75-5.84,1.75-.37,1.83-.37,1.83-5.58,2.43-5.71,2.5-1.56,1.5-1.56,1.5l-1.88.26-1.5,1.12H480l-.62,1.38-3.51.69-1.19-1-.81-3-1.08-3.2s-2.19-2.32-2.44-2.5.44-1.32.44-1.32l2.2,2-.63-2.26-3.26-3.57-.75-2.31-3.58-3.2a27.92,27.92,0,0,1-1.12-3.07,20.69,20.69,0,0,0-.38-2.64,27.24,27.24,0,0,1-1.87-2.44s-2.52-4.2-2.52-4.45-4.19-5.2-4.19-5.2a22.14,22.14,0,0,1-2.57.25c-.31-.06.63,1.5.87,1.81s2.64,6.21,2.64,6.21l2.82,5.14L461,277l.06,4.21s2.38,2.31,2.38,2.19a33.33,33.33,0,0,1,1.31,4.45c-.12.18,2.27,2,2.27,2l4.76,4.76,3.38,4-.37,1.88,2.5,2.63,2.57-.94,5.26-1.56s4.33-.25,4.52-.38a12.66,12.66,0,0,0,.94-1l1.5.25-.5,5.51-2.32,5.45-7.2,11.79-4.77,3.81-8.46,9.71-2.08,4.08s-1.48,4.2-1.43,4.51.69,3.95.69,4.2,1.82,6.2,1.88,6.52,1,3.82,1,3.82l-.44,9.47-2.63,2.56a38.37,38.37,0,0,0-4.32,2.13c-.44.44-1.38,1.63-1.38,1.63L456,378.39a9.26,9.26,0,0,0-.44,1.39,14.79,14.79,0,0,0,.63,1.81l.82,4.07-.88,4.14-4.7,2.76c-.43.25-.88,1.57-.88,1.57l.19,2.56-1.31,3.95-2.33,2s-4.56,6-4.56,5.89-4.95,4.7-4.95,4.7l-2.89.18L432,414.8l-3.76-.56a20.54,20.54,0,0,1-2.63.81,15.16,15.16,0,0,0-1.94.25l-1.76.81-2-1.12-.06-1.13s-1.43-2.51-1.68-2.88.68-.44.87-.44.06-2,.06-2l-.87-1.19-1.69-4-1.76-3.69-2.45-4.57-.31-7.65-3.08-7L406,374.39l-.31-5.27,1.06-3.94,2.44-5.33.57-4.13-1.63-4.21,1-1.38-1-2.43-1.7-4.33S405,340,405,339.93s-5.63-8.34-5.63-8.34l.19-1.19.74-1.69.75-1.88.38-3.88.13-2.2s-2.39-2.32-2.57-2.38-5.64.19-5.76.43-1.07-1.44-1.07-1.81a17,17,0,0,0-1.57-2.7l-2.38-.93-4.95.18-1.25.95-6.4,2.94-1.75-.82-2.38-.37a28.55,28.55,0,0,1-3.88.19c.06-.19-4.52,2.06-4.52,2.06s-5.7-4.25-5.83-4.07-5.57-4.32-5.57-4.32l-1.13-3.83a4,4,0,0,1-.38-.75c0-.13-2.31-2.88-2.56-3.32s-2.13-1.82-2.32-1.63-1.13-.56-1.13-.56l-.94-2.19V296.5l.38-1.32-.19-1.19-1.32-1.06-.06-.76,1.51-1.18.5-2.76,1-2.14v-3.88a13.09,13.09,0,0,0-.94-1.63l.87-.87s0-.76-.06-.57-.94-1.51-.94-1.51-.62-.75-.62-1,.19-1.82.37-1.76,1.45-2.13,1.57-2.25.63-3,.63-3,2.62-2.44,2.69-2.07,0-2.13,0-2.13a15,15,0,0,0,1.07-1.5,20.19,20.19,0,0,1,2-2.07l1.38-2.38,2.51-.56,4.69-4.45a16.24,16.24,0,0,0-.12-2.57l.25-1.94.88-1,.56-1.58,2.07-1.31,3.45-2.44,1.56-3.51.38-.31-.19-.51s-.5-.18-.56-.37a11.35,11.35,0,0,1-.94-2c-.19-.76-.89-.33-1.07-.76s-1.38.13-1.44.37-.72.15-1.35.14a4.36,4.36,0,0,0-1,.05c-.25.13.38-1.31.38-1.31l-.13-1.57-.81-1.31s.1-1.75.07-1.84c.14-.2,1.49-2.93,1.49-2.93s.19-3.19.25-3-.5-2.39-.5-2.39v-1.12l1.38-.07.94-1.06H367l.45.5s.88-.06.94.19,1,.06,1.82,0a9.19,9.19,0,0,1,1.25-.09c.18.06,2.19.49,2.19.49l4.07.07a17,17,0,0,0,1.45-1.06c.12-.2.75-4.08.75-4.08l-.94-1.88-.82-2L376,210.91l-2.27-.94-.62-.62s.06-1,.12-.82,1.13-.75,1.13-.75h.88a16.54,16.54,0,0,1,2.38.06,10.28,10.28,0,0,1,1.76.76c.25.24.12-.51.12-.88s-.81-2.32-.75-2.52.82.38.88.63,2.25.88,2.25.88a24.72,24.72,0,0,1,2.95-1.38,17.8,17.8,0,0,0,.94-2.19s1.94-.5,2.26-.5a28.72,28.72,0,0,0,3.06-1.94,17.17,17.17,0,0,0,.57-2.95c-.12-.25,2.51-1.06,2.76-1.19s2.94-.44,2.94-.44l1.5-.06a9.2,9.2,0,0,1,.94-1.19c.31-.25-.5-.81-.5-.81a24.73,24.73,0,0,1-1.06-2.45,4.58,4.58,0,0,1,.25-2.51,11.09,11.09,0,0,1,1.25-1.5l2.39-.94c.18-.06.56.13.56.13s.06,1.19-.2,1.37,0,.82.26.76.88.94.69,1.19-1,1.13-.82,1.25.51,0,.76-.25a8.1,8.1,0,0,1,2.12-.51s.88-.87,1-1.06-.38-1.06-.76-1.94a9.63,9.63,0,0,0-1.5-1.94,15.1,15.1,0,0,1-.62-2.38c-.07-.25-.46,0-.87.33s-.63.45-.82.42c-.44-.06-1.83,1.32-2,1.44a10.69,10.69,0,0,1-1.63.94,16.62,16.62,0,0,1-2.64-.69l-1.76-1.18s-.06-2,.38-2.45-1.06-.44-1.06-.44a30.07,30.07,0,0,1-.19-3.63c.13-.32.75-1.51.75-1.51l2.5-2.38s4.15-1.44,4.4-1.19a10.92,10.92,0,0,0,1.43.87l1.69-1.81.26-1.57,1.74-2.87,3.14-2.33,1.13-1.94-2.63-.25,7.08-3,4.88-1.2,4.83-1.12,3.76.63a18.27,18.27,0,0,0,2.13-1.14c.12-.19,5,1.26,5,1.26L433.92,160l1.5-.2a19.67,19.67,0,0,1,3.2.51,30.83,30.83,0,0,0,3.64,1.25L453,164.17l.37,1.06s-.3,1.19-.56,1.26-2.13,1-3.25,1.37-.76,0-.76,0l-2.88-.3s-5-.76-4.94-.51a2.25,2.25,0,0,0,1.74.88c.82,0,.45.69,0,1.13s1,1.93,1,1.93,4.39,2.07,4.56,2.07.89-.75.63-1.12-2.13-.5-2.13-.5l-.62-1.07s1.44-.44,1.69-.5,3.64.81,3.51,1.19,1.07-.63,1.07-.63-.81-.81-.88-1.19,1-.75,1.13-.56,2-1.25,2.56-1.82,1.27.44,1.27.44l1.68.19s.38-1.13.19-1.07-1.19-.56-1.19-.56-.19-1.82-.19-2a5.6,5.6,0,0,0-1.61-1.49c.28,0,1.12,0,2,0,1.05,0,2.12,0,2.21,0s1.57,1.82,1.76,1.69c-.14.09-1.63,1.08-1.57,1.25a8.14,8.14,0,0,0,1.38,1s2.06-.25,1.81-.69,1.07-1.25,1.07-1.25a2.84,2.84,0,0,0,.56-.06c.26-.07,1.76-.38,1.88-.69s3.45-1.38,3.45-1.38,2.57-.69,2.63-.44-.32,1.57-.19,1.88,1.82-.88,2.13-1.13l.08,0a200,200,0,0,0-289.24-3.43l.59,1.37,3-1.21.37,1.4,3.38-.46,3,.93,4.24.66,2.35,1.13-3.39,1.5s2.26-.18,2.17.19,3.94-.37,3.94-.37l4.89.27.19-1.31s4.22-1.32,4.61-1.32,1.59.94,1.59,1.42,3.29.94,3.29.94l6.87-.38v-2.07l3.75-1.5,1.5.28,2.07.37.19-2.15,5-3.11,1.51-1.13s2.44-2.53,2.62-2.91,3.86-.47,3.86-.47l4,.19L246.1,154s-3,.19-3.29.28a20.76,20.76,0,0,0-1.88,1.41l.47,1.51.1,2a14.1,14.1,0,0,0-.1,1.78c0-.16.66-.14,1.24-.13a2.87,2.87,0,0,0,1-.06c.19-.19.56,2.16.56,2.16l-1.88,1.13.38,1.5,2.16-.85,2.54-1.87,2.07-1.13.65-1.41.85-.76-1.22-.27-3.19-.47-.1-2.26s3.48-2.73,3.66-3a43.41,43.41,0,0,1,4.7-1.79s2.45.1,2.16.29a18.72,18.72,0,0,0-2.25,1.5,3.64,3.64,0,0,0,0,1.41l2.54-2,4.89-1.23,1.22.95.94-.29s3.94-.09,4.32-.18,1,.56,1.22.66l1.22,1.59s1.41,1.88,1.7,1.69a8.38,8.38,0,0,1,2.25.09l.57,1.23L278,158l1.5,1.5-.56,1.7-1.32,1.22,1.22,1.4,1.32-.37,1.69.84,3.1,2.74-2.17.56s-.18,1.22-.18,1.13a18.61,18.61,0,0,0-2.35.19l-.85,1.4-1.78-.37s-1.89-2.45-2.07-2.82-1,.29-1.32.47l-.56.38-.09,1.41,1,1.22.94,1,.65,1.22-1.68,1-.76,2.07s-1.88-1.14-2.16-1.24a10.75,10.75,0,0,0-2.26-1.59c-.65-.18-.56.48-.56.48l2,2.35s.21,1.31.26,1.57l0,0s0,0,0,0a17,17,0,0,0-2.62-.82l-3.75-1.22-1.22-.37-1.33-2.55a14.75,14.75,0,0,1-1.87-1.78c-.28-.48-1.5.09-1.88.37a28.12,28.12,0,0,1-2.72,1.22L254,171l2-1.59,1.22-.09,2.63.46,2.54-.28.1-1.69s1.6-.75,2-.85,3-1.6,3-1.6l-.37-2.25-2.35.19-2.16,2.25-2.82-.38.94-1.87,3.86-.48.93-.84a22.38,22.38,0,0,1-2.72-2.25c-.28-.47-1.89.28-1.89.28l-3.28-.1-3.76.1,1.41,1.5-2.16,2.07.19,1.21-2.82,2-2.82.37-1.41,1.41-1.32-1.12-1.6-.2.38.94.85.85,3.66,2.63.1,1.78-2.35.09-.75-.83-1.7-.57-2.16,1.78-2.17.38.29-1.13-2-.28,2.16-1,.75-.93,2.72-2.54-.38-.19-3.57,2.45-4.7,2.15-2.15.2-1.32,1.4s-11.19,5.74-11.09,5.55-3.85,3.86-3.85,3.86l2.25.37-.56,1.88.09,2,2.25-.28,2.07.94,1.69,1,.2,1,2.45.38,1.11,1.32,4.9.38-1.41,2.34-.66,2.17,1.5-.1-.28,1.32a13.29,13.29,0,0,1-1.95-.38,20.94,20.94,0,0,1,1,2l.66,2.07L233,201s2.25-1,2.16-1.41,1.5-6.21,1.5-6.21l2.63-.37,5.36-3.11,1.41-3.37s-1.59-1.59-1.84-1.52c.42-.26,3.82-3.66,3.82-3.66l.46-2,2.16-3.76,6.21.57.85-.85c.18-.19,2.81,2.44,2.81,2.44l.19.75,2.92.94-1.79,1.69-.19,2.36,2.07,1.79,3.94-2s3.86-3,4-3.2.93,5.64.93,5.64l.48,1.79L272,190l1.32,1,1,1.41,2.92,1.41.38,1.59,1.12,3.19-2.26,2.83a4.93,4.93,0,0,0,.79,1l.06,0v0s0,0-.06,0-.48.39-.83.68-.71.6-.84.69a8.25,8.25,0,0,1,1.26,1.24v1.22l3.29-.1-.75,2.26.85,2.45-2.82,2.16-.86-2.16L275,212s-.09-1.41-.47-1.31-3.29,0-3.29,0l-3.85-.19,1.21-1.6L271,206.3l2.54-2.63,2.07-2-.38-.47-4.88,2.63-3.67.75H255.88l-2.26,2.07-2,.29-4.8,3.85s1.89-1.32,1.79-1S252,208,252.4,208l3.67-1.31a11.82,11.82,0,0,0,2.53.76h0l-1.5,3-1.59,2.16,1.68,2.55,3.67.18,2.26-2.45,1.5-.56-.18,1.5L265,215s-2.82.94-2.64.47-1,1.6-1,1.6l-5.17,1.41-2,1.22-2.72.75-.75-1.78,3.67-2.35-4.52,1.31-7.43,2.91L240.09,224l1.13.94-.94,1-3,.56-4.88,1.69-2.92,3.66-1.51-.18-1.48,3.2-1.52.28.19,3.57-3.48,3.76-3.95,2.25-5,3.58L208.88,253v2.25l.66,3.11.28,3.86-1.5,4.13-1.22-.47-1.88-2.63-.66-3.39.66-1.5v-1.6l-.85-.93L203,254.33l-2.63,1-1.79-2-2.91.56-3-.38-2.35,2.35-2.36.38-.93-.94-3.85-.56-10.06,6.57s-.19,3.67-.1,3.49-3.1,9.3-3.1,9.3l1.23,4.6s2.53,3.3,2.44,3.76.09-.37.09-.37l2,1.5,8-2.16,1.6-4.7,2.82-1.13,4.7.28-.94,1.61-1.59,4.69L189,284.68s-.75,2.16-.75,2.44-1,2.07-1.13,2.35.71.12,1.49.1,1.52-.05,1.52.09,5.73-.19,5.73-.19l2.82,2.07-.47,2.72-1.12,4.15-.2,3.75,2.07,3.2,2.63,1.79,2.16-1.14,3.77-.46a43.17,43.17,0,0,1,3.37,3c.19.38,3.21-3,3.21-3s-.1-1.79.18-1.88a12.44,12.44,0,0,0,1.51-2.07H217l2.73-1S222,299.25,222,299s1.69-.75,1.69-.75l.56,1.22s-1.41.65-1.41.94v2.25l-1.13,1.6,1.6,1.7-.18-3s2.35-2,2.53-2.16a16.8,16.8,0,0,0,.94-2s1.13,1.41,1,1.79,3.2,1.68,3.2,1.68l4.61.29,2.73,1.4.56-1.12s5.83-.85,6.1-.93-2.44,1.12-2.44,1.12l.75,1,1.23.37.49.34,1.39,1.14s-.13,1.25.12,1.37a1.28,1.28,0,0,0,.47,0c.32,0,.65,0,.65.21,0,.38,3,1.75,3,1.75l1.13,2.63,5.27,2.89,5.76.25,4.76,3.89s.88,5,1,5.26.37-.13.37-.13l1.51,1.26-.38,2.63,3.25,2v2.38l2.14-1.87s6.14,3.12,6.27,2.63.37,2.5,0,3,1.37-.75,1.37-.75l4.14,1s3.89,0,4.13-.63c.14-.35.81.14,1.41.63s.92.81,1,.75a46,46,0,0,1,5.38,4.76c.13.38,3.14,1,3.14,1h0s1.37,4.26,1.63,4.76-1.39,3.13-1.39,3.13l-2.25,5.15-4.76,6.76s-.38,1.38-.13,1.51-.12,5.13,0,5.52-1,6.13-1,6.13-1,4.89-1,5.26a32.25,32.25,0,0,1-2.5,3.76l-1.64,1.26-4.89,1.63-6.51,4.38-.88,1.5.63,4.14-.76,3.38-2,3.64h-1.88l-.87,3.63-2,4.89L267,416.18l-3.75-.64-2.51-1.87-1.13,1.12,1.25-.25a8.62,8.62,0,0,1,1,2.13c.25,1,.25,1.38,1.26,1.5s1,1.26,1,1.26a16,16,0,0,0,.12,2.13c.13.5-1.5,3.39-1.5,3.39l-4.27,1.12a16.68,16.68,0,0,0-2.63-.12c-.37.12-.75,1.76-.62,2.13s.5,1.38.5,1.38l-1.13,1.62-2,.38-2.13-.62v1.51l1.26,2,1,.38h1.75s-1,1.5-1.38,1.63a3.24,3.24,0,0,0-.75,2.38,5.92,5.92,0,0,1,.13,2l-1.51.87-.25,2.89,2.5,2.5,1.51.75A11,11,0,0,1,253.2,450c-.49.37-.49,1.75-.49,1.75l.25,1.89-1.38,1,.88,2.51,4.39,4.76,5.75,2-.86,1.12L259,466.55s-1.88-.5-8.4-2.13-14.28-15.29-14.28-15.29l1.25-2.13-1.25-1-1.76-.25.25-2.26.62-1.75-1.25-1.13.63-.75.88-.88,1,.88-.12-1.75-.87-4.39-1.26-.12,1,2.75-1.62.13-1.38-4.77s-.37-4.38-.37-4.88a29.22,29.22,0,0,0-2-4l.5-2.26.63-11.15-1.5-5.52-.51-19.3-1.74-9.14s-10.23-7.37-11.63-8.4c-.1-.07-4.74-9.43-4.74-9.43L207.85,353l-3.29-6.57s-1.79-1.42-1.79-1.23a15.18,15.18,0,0,1-.56-1.6L201.09,340l1.22-1.78,1.69-1.79-1.88-1.69-.28-2.26,1.32-2.63.84-3,2.17-.84.08-2.25,2.08-1.41,1.5-2.45-.1-7.61L208,309.59l.1-1.31-1.41-1.13h-1.32l-1.49,1.5.45,1.79-1.59.94-2.44-2.26-1.69-.47-.85.57-1.32-1.5-1.22-1.14-1.88-2-1.59-.84s.27-2.45-.1-2.73-2.07-2.45-2.07-2.45l-.47-2.15h-1.79l-3.76-1.33-3.66-.93L176.37,290,174,288.91,170.35,290l-3.1-.75-6.21-3.1-1.69-1.7-.93.19-5.74-4.23-.56-2.26,1-1.59.1-3.29-6.86-8.18.56-2.54-3.57-5a26.52,26.52,0,0,1-.66-2.64c0-.38-.47-3.94-.47-3.94l-2.72-.57-.67,3.86s1.32,1.87,1.14,2.15,1.32,3.48,1.32,3.48,1.59,4.23,1.5,4.8a12,12,0,0,0,1,3l1.6,3.29-1.6,1.6-.28-1.32-1.7-2.63-1.78-1.41.66-2.63-1.7-2-.84-.1-2.16-3,1.87-1.32-1.69-3.47-.56-7.71-.36-.66a199.9,199.9,0,0,0-7,52.46s0,34.34,11.53,67.09c16.92,48.07,85.2,133.57,188.47,132.91,119.41-.77,200-116.13,200-200a201.05,201.05,0,0,0-2.13-29.21A28.73,28.73,0,0,0,523,266.49ZM455.36,162.34h.08C455.36,162.35,455.33,162.35,455.36,162.34ZM213.6,280s-2.54.19-2.54-.19-.56-3.38-.56-3.38l-1.32-1.22-3.38-1.13a15,15,0,0,0-2.08-.56c-.37,0-.55-.94-.94-.76s-1.87.39-2.06,1.13-2.26,2.54-2.34,2.26-.39-1.6-.39-1.6v-.28s3-2.54,3.19-2.54c0,0,0,0,0,0,0,.18,6.68.56,6.68.56s6.1,1.5,6.29,2.06,2.91,3.21,3.67,3.21a3.94,3.94,0,0,1,2.25.74c.1.28-1.51,1.23-1.5,1.23Zm18.13,3.57-3.48-.09-2.34.47a3.59,3.59,0,0,0-.47,1c0,.28-2,.66-2,.38a5.18,5.18,0,0,0-.38-1.13,13,13,0,0,1-1.6.28c-.38,0-1.13.28-1.59.1s-1.61,0-1.61-.57.85-.85.85-.85l.09-.28h3.1l.29-2.72s-.75-.84,0-.84,3.38.93,3.85.64,2.25-.74,2.63,0,2,.95,2.54,2S232,283.55,231.73,283.55Zm129-112.12-5.27,1.69h0s-5.27,1.13-4.89.57-2.63-2.26-2.63-2.26v-1.69s-1.13.75-1.69.37A24.78,24.78,0,0,0,344,169l3.38-1.88,2.81,1.69,9.6-1.13,2.06,1.69ZM372,198l-.51.94-.25.93L369,200l-.37.37-1.32.75-1.56.38-1.51-.31-.94-.57.32-1.19,1.06-.7.82-.37.12-.88-.75-.18-.75-.63.63-.63-.38-.87.32-.57.93-.12.64.37H367a1.89,1.89,0,0,0,.64-.62c.11-.31-.38-.31-.57-.13s.74-.81.74-.81l.58-.81,1-.32,1.5.26,1.87.43.39,1.75-1.19.69Zm.49-8.21s-.56-1.07-.25-1.13a.83.83,0,0,0,.5-.37,4.29,4.29,0,0,0-.12-.88,3.55,3.55,0,0,1,1.06-1.13,5.9,5.9,0,0,0,1.13-1s.57-.82.82-.75a1.67,1.67,0,0,0,.44,0,1.41,1.41,0,0,1,.75.07c.31.19,1.07,0,1.07,0l.81-1.2.87-.36s.44.56.19.62-1.38,2.26-1.56,2.26-.82.05-.88.25.56.69.56.69,2.19-.13,2.38-.07a1.22,1.22,0,0,1,.31,1.07,14.92,14.92,0,0,1-1.18,1.37s-.88.63-.51,1.13a2,2,0,0,0,1.07.82,2.82,2.82,0,0,1,1,1.44c-.06.19,2.88,4.2,2.88,4.2l-.05,1.25a7.88,7.88,0,0,1,1.31-.06c.25.06,1.13,0,1.19.19s.5.82.32,1.13-.32,1-.69,1.19-1.19.44-1,.63,1,.43.87.68-.63,1.07-.63,1.07a23.53,23.53,0,0,1-2.62.69,15.89,15.89,0,0,1-1.64-.44,6.89,6.89,0,0,0-1.75.19l-2.13.06c-.19,0-1,1-1,1l-1.37.19-1.26-.07-.51.63-.81-.38,1.45-1.12.69-.75s.75-1.19,1-1,1.13,0,1.13,0l-.25-.43-1.38-.19-1.38-.13-.06-.94a5,5,0,0,1,1.38-.5c.24.06,1.05-.18,1-.43s-.13-.89-.13-.89h-.94s-.5.2-.06-.31.93-1,1.18-.94a8.28,8.28,0,0,0,1.45-.13s.57.14.5-.25-.37-1.62-.37-1.62l-.57-.88s.25-.56.07-.63a12,12,0,0,0-1.7.19s-.62.25-.82,0a3,3,0,0,1-.31-.81l.57-.88-.82.19s-1-.13-.94-.32-.12-.44-.56-.62h0c-.43-.19.13-.89.39-.82s.69-.37.69-.37ZM252.6,140.85h.14a1.45,1.45,0,0,1,1,.63,20.85,20.85,0,0,1,.12,3c-.12.37-1.63.37-2.12.25A5.45,5.45,0,0,1,250,142,19.45,19.45,0,0,1,252.6,140.85Zm-11,.74,1.13-.24a11.08,11.08,0,0,1,2.38.37c.5.25,2.89.76,3.64,1.14s-1.26,1.37-1.76,1.5a5.39,5.39,0,0,1-2-.25c-.38-.13-3.39-1-3.76-1.13S241.32,142,241.57,141.59Zm-13,2.39.12-.88a33.54,33.54,0,0,0,3.14-1.5.43.43,0,0,1,.27-.08,2.92,2.92,0,0,1,1.36.7l-.51.64-1.49,1.25s-1.75.75-2.26,1a8.12,8.12,0,0,1-2.69-.25Zm-4.13,16.68a18.54,18.54,0,0,0-2.13,1.5,6.65,6.65,0,0,1-3-.76,2.07,2.07,0,0,0-1.67-.23,1.35,1.35,0,0,1-1,0L215,160.9a9.81,9.81,0,0,1-2.25.5c-1.26.13-2.14.63-2.52.25s-3.12.63-4.51,1.51-2,.12-2-.13-.13-1.13-.13-1.13a23.1,23.1,0,0,0-2.88-1.12c-1-.25.38-.88.38-.88s-.38-1.13,1.25-2.38,0-1.38.37-1.51,1.51-1.37,1.13-1.63-2.88,1.26-3.38,2-2.75.37-3,.88-3.88.25-3.5-.38-1.13-1.62-1.13-1.62,5.51-2,6.27-2.26a1.37,1.37,0,0,0,1-1.5c0-.76,1.5-1.14,1.5-1.14l2.76-.25s4.63.13,5.38,0h.14c.69,0,1.28.84,1.74,1.9s1.14,1.88,1.76,1.37c.35-.28,1.05,0,1.72.26a3.05,3.05,0,0,0,1.29.37c.62-.12,1.76-.25,1.87.25s1,.63,1,1.26.74.25,1-.51,1.39-1.25,1.63-2l.5.13a14.59,14.59,0,0,1,2.13-.88c.63-.12.25-.5.38,1.88s-.75,2.63-1.13,2.87,1,1.64,1.38,2.52S224.78,160.53,224.41,160.66Zm4.76-10.91a9.94,9.94,0,0,0-2.69-.13L224,150l-4.39,1.51s-1,.12-1-.13-2.88-2.39-3.88-1.76-1.51-1.5-1.51-1.5-3.76-.76-4.13-.38l-1.25-.75s1.87-.63,2.37-.25,3.13-1.13,3.13-1.13,6.15-1.37,6.89-1.5h.1c.63,0,.29,1.26.29,1.26s-1.76,1.5-1.13,1.25,2.38.38,2.38.38a2.73,2.73,0,0,1,1.51.87c.62.76,2.12.26,1.87.63s2.88-1.37,4-2.25,1.63-.13,1.63-.13l-.39,1.25,1.64.51-.75,1.26S229.54,150,229.17,149.75Zm10.15,2.88c-.24.13.13.63,0,1.25s-.24.38-.24.38l-2.27,1.13s-4.13,1.62-4.13,1.25-.63-1-.88-1.5-1.88-1.13-1.88-1.13,1.12-1.38,1.51-1.38.5,1,.5,1l1.38.25a8.26,8.26,0,0,0,0-1.88c-.08-.59.34-.52.91-.44a2.55,2.55,0,0,0,1.22-.06c1-.37,3.13-.12,4.13-.37l.19,0C240.44,151.1,239.55,152.51,239.32,152.63Zm41.61-10.28c-.38.63-8.65,4-8.65,4L271,145.24l-.25.75a1.41,1.41,0,0,1-.62.63s-2.14-.38-3-.51a13.65,13.65,0,0,0-2,.09,15.23,15.23,0,0,1-3.23,0c-1.75-.25-4.38,1.75-3.88,2a2.77,2.77,0,0,0,2.13-.37c.75-.38,3.89-.25,4.89-.13s3.38.75,4,.75-.88,1.38-1.51,1.51a10.39,10.39,0,0,1-3.38-.13c-.62-.25-1.75.62-3.64.62s-2.5.26-4,.14-.75-.38-1.63-.51-2.64-.5-3.26-.63.75-1,.75-1-1.13-1.25-1.75-1-.26.75-.63,1.25-.88.5-1.25,1.38-1.26.25-2.26-.12a3.66,3.66,0,0,0-1.65-.22c-.41,0-.94,0-1.73,0a11,11,0,0,1-3.76-.63h0c-1-.38-.38-.38.62-2.38s2-.75,3.76-.63.26,2,.88,2.39a1.3,1.3,0,0,0,1,.09,3.55,3.55,0,0,1,1.29,0c1.25.25,1-1.5,1.13-2.63s.62-.75,1-.75a21.39,21.39,0,0,1,2.87.25,17.11,17.11,0,0,1,2.14,1.75s4-1.5,5.26-1.5,3.38-1.63,3-1.76a2,2,0,0,0-2.13.26c-1.13.75-2.76-1-3.51-1.51,0,0-.12-2.88.5-3.51s0,0,.63.88,4.36-2.13,4.28-2.25h0c.26,0,2.52.13,2.87.24a40.1,40.1,0,0,0,4-.37,42.6,42.6,0,0,1,5.37-.37c2.13.12,7.15-1.26,8-1.38.62-.09,3.53-.18,6-.18,1,0,2,0,2.66.05,2.25.13,11.65.13,12.78,0s.76.75,0,.75-4.14.76-4.14.76-4.64,1.49-5.5,1.12c-.47-.2-2.11.33-3.66.86a15,15,0,0,1-3.11.9C286.56,140.1,281.3,141.72,280.93,142.35Zm48.16,24.94-5.26,1.14-4.13.93-1.89,1.13-1.13,2.07-3.94,3.76L309,181.39l-3.76.19-2.82-1.69-2.45-.38-1.5-4.13-.56-5.08.19-6,2.63-3.2,2.62-.56.39-1.31L300,160l.19-2.07s1.5-.37,2.63-.56a12.11,12.11,0,0,1,1.89-.2L302,155.83s-2.25.57-1.5-.56S301.83,154,302,153s.38-2.64-.19-3.2a27.42,27.42,0,0,0-3.94-2.06l-6-.76s-5.08-1.12-5.26-1.31l-1.5-1.5.74-1.32,12.23-1.5.19-1.32s-1.69-.56-1.13-.94,10.52-1.69,10.52-1.69l10.53-.94h7.53l2.44-1.31L350,134.4l10.91,2.45.38,1.31L371.57,137,362.93,141s-4.89.57-4.52,1.68a22.76,22.76,0,0,0,1.89,3.39l-2.64.94-.37,2.82s1.31-.18,1.12.38-4.31,2.44-4.31,2.44-2.83,2.26-2.26,2.63-.19,4.14-.19,4.14l-3-.18s-13.54,4.13-14.1,4.5ZM489.82,367.55c-.05.16,0,.11,0,.06l-.11.31c-.24.75-2,.38-1.74.88a4.52,4.52,0,0,1,.11,2.38c-.11,1.26-1.37,3.13-1.5,3.63a14.89,14.89,0,0,0-.37,2.64c-.13,1.5-.76,2-1.25,3.88a30.07,30.07,0,0,0-1,3.89,20.86,20.86,0,0,1-1.25,4.13c-.12.38.38,0-.38,1.26s-1,1.37-1.38,1.63-1.75.88-1.75.88-1.88.74-2.25.49-1.25-1-1.25-1a3.17,3.17,0,0,1-1.38-1c-.38-.63-1.39-2.51-1-2.88s.13-2.26.13-2.26a5.34,5.34,0,0,1,.25-2.13,3.32,3.32,0,0,1,1.38-2.13c.37-.13,1.12-2.76,1.12-2.76v-2.38l-.49-2.51a2.55,2.55,0,0,1,0-2.63c.87-1.13,1.49-1.61,1.12-2.12s.88-.64.88-.64l3.63-1.5s2-1.38,2.25-2,1.88-2.63,2-3A26.51,26.51,0,0,1,487.7,360s.5-.59.75-.59c.05,0,.09,0,.11.1.14.37,1.52,2.51,1.52,3.89A28.84,28.84,0,0,1,489.82,367.55Z" transform="translate(-110.58 -98.89)"/><path class="cls-5" d="M455.36,162.34s0,0,.08,0Z" transform="translate(-110.58 -98.89)"/><path class="cls-5" d="M271,177.54l0,0C271,177.56,271,177.57,271,177.54Z" transform="translate(-110.58 -98.89)"/><path class="cls-5" d="M258.61,207.43h0Z" transform="translate(-110.58 -98.89)"/><path class="cls-5" d="M277.31,202.43l-.06,0s.05,0,.06,0Z" transform="translate(-110.58 -98.89)"/><path class="cls-6" d="M139.87,384.69c-25,19.83-33.13,44.95-24.39,53.68,15.46,15.45,77.61,2.15,155.74-55.24" transform="translate(-110.58 -98.89)"/><g id="g4"><path id="path6" class="cls-7" d="M341,337q-.77,4.67-10.07,11.33l-15,10.75,1.07,41.26v.33a1.69,1.69,0,0,1-.68,1.15l-4,2.87a1.69,1.69,0,0,1-1.31.28,1.59,1.59,0,0,1-1.4-1.23l-9.61-33.24-15.3,11q1.54,13.35,1.42,14.11a1.69,1.69,0,0,1-.68,1.15l-4,2.87a1.79,1.79,0,0,1-2.67-.83L273,382.4l-13.64-10.78a1.6,1.6,0,0,1-.66-1.66,1.69,1.69,0,0,1,.68-1.15l4-2.92a1.69,1.69,0,0,1,1.31-.28q.75.12,12.91,5.87l15.3-11-28.41-19.77a1.59,1.59,0,0,1-.71-1.71,1.68,1.68,0,0,1,.69-1.15l4-2.87a1.69,1.69,0,0,1,1.31-.28.65.65,0,0,1,.31.11l38.73,14.26,15-10.75q9.3-6.68,14-5.9A3.87,3.87,0,0,1,340.4,334,3.83,3.83,0,0,1,341,337Z" transform="translate(-110.58 -98.89)"/></g></svg>